<svg xmlns="http://www.w3.org/2000/svg" xmlns:xlink="http://www.w3.org/1999/xlink" width="500" zoomAndPan="magnify" viewBox="0 0 375 374.999991" height="500" preserveAspectRatio="xMidYMid meet" version="1.0"><defs><g/><clipPath id="5fc93663e4"><rect x="0" width="133" y="0" height="237"/></clipPath><clipPath id="5296075df4"><rect x="0" width="188" y="0" height="375"/></clipPath></defs><g transform="matrix(1, 0, 0, 1, 150, 138)"><g clip-path="url(#5fc93663e4)"><g fill="#2563eb" fill-opacity="1"><g transform="translate(0.83456, 206.429487)"><g><path d="M 67.984375 -28.96875 L 67.984375 -59.734375 L 90.046875 -75.109375 L 63.53125 -90.71875 L 37.21875 -75.109375 L 37.21875 -44.359375 L 90.046875 -13.375 L 63.53125 2 L 10.703125 -28.96875 L 10.703125 -90.71875 L 63.53125 -121.46875 L 118.796875 -90.71875 L 118.796875 -59.734375 Z M 67.984375 -28.96875 "/></g></g></g></g></g><g transform="matrix(1, 0, 0, 1, 73, 0)"><g clip-path="url(#5296075df4)"><g fill="#ffffff" fill-opacity="1"><g transform="translate(0.93029, 323.005099)"><g><path d="M 20.40625 -219.4375 L 116.984375 -274.78125 L 165.265625 -245.34375 L 165.265625 -189.59375 L 116.984375 -219.4375 L 68.703125 -189.59375 L 68.703125 -133.859375 L 116.984375 -163.6875 L 165.265625 -133.859375 L 68.703125 -78.109375 L 68.703125 3.53125 L 20.40625 -22.375 Z M 20.40625 -219.4375 "/></g></g></g></g></g></svg>